<svg viewBox="0 0 49.5 50.5001" xmlns="http://www.w3.org/2000/svg" xmlns:xlink="http://www.w3.org/1999/xlink" width="49.500000" height="50.500122" fill="none" customFrame="#000000">
	<g id="Group 16">
		<path id="Vector" d="M44.5642 40.5454C42.8082 38.7762 38.5553 36.1943 36.4919 35.1539C33.8048 33.8005 33.5837 33.6899 31.4716 35.2589C30.0628 36.306 29.1262 37.2415 27.4775 36.8898C25.8287 36.5382 22.2459 34.5557 19.1088 31.4287C15.9716 28.3017 13.874 24.6152 13.5212 22.9721C13.1685 21.329 14.1194 20.4035 15.1567 18.9915C16.6185 17.0012 16.508 16.6695 15.2584 13.9826C14.2842 11.8928 11.627 7.67999 9.85107 5.93295C7.95131 4.05654 7.95131 4.38826 6.72719 4.89689C5.73062 5.31617 4.77453 5.82582 3.87092 6.41947C2.10165 7.59485 1.1197 8.5712 0.432999 10.0385C-0.2537 11.5058 -0.562217 14.9457 2.98407 21.3876C6.53036 27.8296 9.0184 31.1235 14.1681 36.2585C19.3178 41.3934 23.2776 44.1544 29.0665 47.4008C36.2276 51.4113 38.9744 50.6295 40.4462 49.944C41.918 49.2584 42.8989 48.2854 44.0766 46.5163C44.6718 45.6142 45.1826 44.6593 45.6026 43.6635C46.1123 42.4439 46.4441 42.4439 44.5642 40.5454Z" fill="rgb(249,234,182)" fill-rule="nonzero" />
		<path id="Vector" d="M39.5254 28.8219C37.1304 27.6156 36.9333 27.5171 35.0508 28.9156C33.7951 29.8489 32.9603 30.6826 31.4908 30.3692C30.0212 30.0558 26.8279 28.2888 24.0317 25.5017C21.2356 22.7146 19.3659 19.4288 19.0515 17.9643C18.7371 16.4998 19.5847 15.6749 20.5092 14.4164C21.8122 12.6424 21.7136 12.3467 20.5999 9.9519C19.7316 8.08924 17.3632 4.33435 15.7803 2.77721C14.087 1.10476 14.087 1.40042 12.996 1.85376C12.1077 2.22747 11.2556 2.68172 10.4502 3.21084C8.87321 4.25847 7.99799 5.12869 7.38593 6.4365C6.77388 7.7443 6.49889 10.8103 9.65972 16.552C12.8205 22.2937 15.0381 25.2297 19.6281 29.8065C24.218 34.3833 27.7475 36.8442 32.9071 39.7377C39.2898 43.3122 41.7381 42.6155 43.0499 42.0044C44.3617 41.3934 45.236 40.5261 46.2856 38.9493C46.8162 38.1453 47.2715 37.2941 47.6458 36.4066C48.1001 35.3196 48.3958 35.3196 46.7203 33.6274C45.1551 32.0505 41.3645 29.7493 39.5254 28.8219Z" fill-rule="nonzero" stroke="rgb(125.667,181.688,147.142)" stroke-width="3.000000" />
	</g>
</svg>
