<svg viewBox="0 0 19.2495 18.375" xmlns="http://www.w3.org/2000/svg" xmlns:xlink="http://www.w3.org/1999/xlink" width="19.249512" height="18.375000" fill="none" customFrame="#000000">
	<path id="Star 3" d="M11.5549 5.67063C11.6929 6.0759 12.0735 6.34841 12.5016 6.34841L15.5818 6.34841C16.5617 6.34841 16.9569 7.61166 16.1517 8.17013L13.7409 9.84206C13.3741 10.0965 13.2203 10.5633 13.3642 10.986L14.3036 13.7461C14.6145 14.6593 13.5798 15.4398 12.7871 14.89L10.1946 13.0921C9.85187 12.8543 9.39758 12.8543 9.05483 13.0921L6.46235 14.89C5.66969 15.4398 4.63496 14.6593 4.9458 13.7461L5.88528 10.986C6.02915 10.5633 5.87539 10.0965 5.50851 9.84206L3.09777 8.17012C2.29253 7.61166 2.68772 6.34841 3.66766 6.34841L6.74788 6.34841C7.17598 6.34841 7.55659 6.0759 7.69454 5.67063L8.67806 2.78117C8.98566 1.87748 10.2638 1.87748 10.5714 2.78117L11.5549 5.67063Z" fill="rgb(255,168.257,88.1875)" fill-rule="evenodd" />
</svg>
