<svg viewBox="0 0 19.2827 18.457" xmlns="http://www.w3.org/2000/svg" xmlns:xlink="http://www.w3.org/1999/xlink" width="19.282715" height="18.457031" fill="none" customFrame="#000000">
	<g id="Fb">
		<path id="Vector" d="M19.2828 9.28432C19.2828 4.15722 14.9657 0 9.64141 0C4.31711 0 0 4.15722 0 9.28432C0 13.9182 3.52514 17.7592 8.13494 18.4563L8.13494 11.9689L5.68628 11.9689L5.68628 9.28432L8.13494 9.28432L8.13494 7.23887C8.13494 4.9124 9.5747 3.62627 11.7767 3.62627C12.8317 3.62627 13.9353 3.80782 13.9353 3.80782L13.9353 6.09284L12.7189 6.09284C11.5219 6.09284 11.1475 6.80823 11.1475 7.54351L11.1475 9.28432L13.8212 9.28432L13.3942 11.9689L11.1479 11.9689L11.1479 18.4572C15.7577 17.7604 19.2828 13.9194 19.2828 9.28432Z" fill="rgb(39,76,91)" fill-rule="evenodd" />
	</g>
</svg>
