<svg viewBox="0 0 38.582 55.7158" xmlns="http://www.w3.org/2000/svg" xmlns:xlink="http://www.w3.org/1999/xlink" width="38.582031" height="55.715790" fill="none" customFrame="#000000">
	<g id="Logo">
		<path id="Vector" d="M1.85059 41.9263L19.2909 41.9263L36.7312 41.9263" stroke="rgb(125.667,181.688,147.142)" stroke-width="2.000000" />
		<path id="Vector" d="M5.79102 48.3579L19.291 48.3579L32.791 48.3579" stroke="rgb(125.667,181.688,147.142)" stroke-width="2.000000" />
		<path id="Vector" d="M0 0L7 0L14 0" stroke="rgb(125.667,181.688,147.142)" stroke-width="2.000000" transform="matrix(-4.37114e-08,1,-1,-4.37114e-08,18.791,1.35791)" />
		<path id="Vector" d="M0 0L26.4316 0" stroke="rgb(125.667,181.688,147.142)" stroke-width="2.000000" transform="matrix(0,1,-1,0,18.8657,14.6421)" />
		<path id="Vector" d="M29.9254 4.41064L18.8657 15.4949" stroke="rgb(125.667,181.688,147.142)" stroke-width="2.000000" />
		<path id="Vector" d="M34.1792 8.67383L18.8657 24.0212" stroke="rgb(125.667,181.688,147.142)" stroke-width="2.000000" />
		<path id="Vector" d="M36.7314 15.4946L18.8657 32.5473" stroke="rgb(125.667,181.688,147.142)" stroke-width="2.000000" />
		<path id="Vector" d="M37.5821 23.1685L18.8657 41.9264" stroke="rgb(125.667,181.688,147.142)" stroke-width="2.000000" />
		<path id="Vector" d="M37.582 31.6948L27.373 41.9264" stroke="rgb(125.667,181.688,147.142)" stroke-width="2.000000" />
		<path id="Vector" d="M1 31.6948L11.209 41.9264" stroke="rgb(125.667,181.688,147.142)" stroke-width="2.000000" />
		<path id="Vector" d="M8.65674 4.41064L18.8657 15.4949" stroke="rgb(125.667,181.688,147.142)" stroke-width="2.000000" />
		<path id="Vector" d="M4.40283 8.67383L18.8655 24.0212" stroke="rgb(125.667,181.688,147.142)" stroke-width="2.000000" />
		<path id="Vector" d="M1.85059 14.6421L18.8655 32.5473" stroke="rgb(125.667,181.688,147.142)" stroke-width="2.000000" />
		<path id="Vector" d="M1 22.3159L18.8657 41.0738" stroke="rgb(125.667,181.688,147.142)" stroke-width="2.000000" />
		<path id="Vector" d="M1 35.8351L1 19.8806C1 9.45419 9.19018 1 19.291 1C29.3937 1 37.5821 9.45419 37.5821 19.8806L37.5821 35.8351C37.5839 46.2635 29.3937 54.7158 19.291 54.7158C9.19018 54.7158 1 46.2635 1 35.8351Z" fill-rule="nonzero" stroke="rgb(125.667,181.688,147.142)" stroke-width="2.000000" />
	</g>
</svg>
